#!OML:ASF I:\golf\golf\golf 2\Subject 1\2002-09-07\Subject1.ASF
:FULLY-SPECIFIED
:DEGREES
256
root -8.86823 17.9931 5.54906 -41.672 85.824 -56.3997
lowerback 5.39247 0.382675 -0.260084
upperback 5.64814 0.644853 4.35262
thorax 2.76157 0.315458 4.64252
lowerneck -11.5038 -0.662627 1.86254
upperneck 44.1848 3.51042 -4.84834
head 18.8814 1.83088 -1.78252
rclavicle -4.77083e-015 -3.10104e-014
rhumerus -20.2654 45.3714 -99.6102
rradius 56.2553
rwrist -63.4607
rhand -40.0457 -18.2975
rfingers 7.12502
rthumb -13.0118 -47.8717
lclavicle -4.77083e-015 -3.10104e-014
lhumerus -16.7468 -46.9642 106.079
lradius 53.3716
lwrist 64.106
lhand -11.6367 65.1612
lfingers 7.12502
lthumb -165.593 85.3588
rfemur -27.774 -1.46391 14.639
rtibia 25.5841
rfoot -6.9373 -4.9905
rtoes -2.46025
lfemur -27.3907 2.73662 -10.1916
ltibia 26.2692
lfoot -10.517 -3.53535
ltoes -15.3668
257
root -8.86958 17.9913 5.5444 -45.1648 86.0351 -59.8855
lowerback 5.4051 0.26839 -0.271969
upperback 5.65744 0.495103 4.46607
thorax 2.77672 0.239242 4.77352
lowerneck -11.4306 -0.593408 1.68676
upperneck 44.0898 3.66219 -4.8476
head 18.8075 1.86157 -1.71935
rclavicle -9.93923e-015 -3.57812e-014
rhumerus -20.313 45.8055 -99.5993
rradius 56.3092
rwrist -63.633
rhand -40.6193 -18.6306
rfingers 7.12502
rthumb -13.5647 -48.1687
lclavicle -9.93923e-015 -3.57812e-014
lhumerus -16.7037 -46.6565 106.078
lradius 53.4421
lwrist 64.0331
lhand -11.5005 65.103
lfingers 7.12502
lthumb -165.462 85.4264
rfemur -27.7031 -1.57143 14.5915
rtibia 25.5924
rfoot -7.00056 -5.22508
rtoes -2.15386
lfemur -27.4926 2.7023 -10.2617
ltibia 26.2335
lfoot -10.6037 -3.7036
ltoes -17.0502
258
root -8.87077 17.9886 5.54854 -44.1734 85.9499 -58.9515
lowerback 5.31203 0.358864 -0.399568
upperback 5.68225 0.60928 4.54369
thorax 2.84402 0.289832 4.92579
lowerneck -11.3981 -0.588481 1.62878
upperneck 44.0175 3.71293 -4.91873
head 18.7573 1.86388 -1.73159
rclavicle 6.36111e-015 3.97569e-015
rhumerus -20.2494 46.0638 -99.5253
rradius 56.3267
rwrist -63.7945
rhand -40.8324 -18.8674
rfingers 7.12502
rthumb -13.7701 -48.3917
lclavicle 6.36111e-015 3.97569e-015
lhumerus -16.603 -46.4785 106.079
lradius 53.4165
lwrist 63.8933
lhand -11.5784 65.3854
lfingers 7.12502
lthumb -165.537 85.1387
rfemur -27.7762 -1.3176 14.5729
rtibia 25.5758
rfoot -6.98235 -5.39502
rtoes -1.98944
lfemur -27.5712 3.11949 -10.3238
ltibia 26.2281
lfoot -10.7921 -3.89216
ltoes -18.7971
259
root -8.87031 17.9934 5.57118 -37.2136 85.3106 -52.2058
lowerback 4.97763 0.755566 -0.806025
upperback 5.70119 1.11455 4.62733
thorax 2.99928 0.522627 5.23641
lowerneck -11.3891 -0.630772 1.70431
upperneck 43.9995 3.68344 -5.03967
head 18.7471 1.85271 -1.80799
rclavicle -1.47101e-014 -2.62396e-014
rhumerus -20.0951 46.0887 -99.4524
rradius 56.2557
rwrist -63.8738
rhand -40.6325 -18.665
rfingers 7.12502
rthumb -13.5774 -48.2023
lclavicle -1.47101e-014 -2.62396e-014
lhumerus -16.5421 -46.4778 106.083
lradius 53.396
lwrist 63.8045
lhand -11.4586 65.893
lfingers 7.12502
lthumb -165.421 84.6393
rfemur -28.1318 -0.356966 14.6353
rtibia 25.5311
rfoot -6.90126 -5.53334
rtoes -1.99668
lfemur -27.5979 4.18147 -10.2563
ltibia 26.2546
lfoot -10.7848 -4.1474
ltoes -17.0685
260
root -8.87108 17.9991 5.56688 -39.4936 85.4421 -54.5343
lowerback 4.92916 0.786332 -0.662583
upperback 5.69678 1.1592 4.6174
thorax 3.01946 0.55039 5.14377
lowerneck -11.4265 -0.686737 1.7852
upperneck 44.0149 3.58255 -5.04618
head 18.7615 1.82781 -1.84398
rclavicle -2.46493e-014 -5.00937e-014
rhumerus -19.9782 45.9593 -99.432
rradius 56.2035
rwrist -63.9259
rhand -40.0419 -18.269
rfingers 7.12502
rthumb -13.0082 -47.8434
lclavicle -2.46493e-014 -5.00937e-014
lhumerus -16.5771 -46.6172 106.064
lradius 53.4424
lwrist 63.7729
lhand -11.0277 66.1771
lfingers 7.12502
lthumb -165.006 84.3858
rfemur -28.1133 -0.334297 14.6238
rtibia 25.4898
rfoot -6.90284 -5.76603
rtoes -2.23246
lfemur -27.6636 3.90487 -10.1094
ltibia 26.2986
lfoot -10.6649 -4.49031
ltoes -13.3166
261
root -8.87218 18.002 5.56076 -41.5803 85.5981 -56.6276
lowerback 4.91804 0.836638 -0.483024
upperback 5.70786 1.23142 4.55372
thorax 3.03398 0.594167 4.97291
lowerneck -11.5165 -0.765112 1.86203
upperneck 44.054 3.40389 -4.95365
head 18.7964 1.78296 -1.84622
rclavicle -2.26615e-014 -3.73715e-014
rhumerus -19.9054 45.7345 -99.418
rradius 56.182
rwrist -63.9255
rhand -39.7111 -18.0777
rfingers 7.12502
rthumb -12.6893 -47.6722
lclavicle -2.26615e-014 -3.73715e-014
lhumerus -16.6302 -46.8768 106.024
lradius 53.495
lwrist 63.7962
lhand -11.1833 66.223
lfingers 7.12502
lthumb -165.156 84.3287
rfemur -28.05 -0.502097 14.6121
rtibia 25.4343
rfoot -6.84147 -5.82593
rtoes -2.54477
lfemur -27.7166 3.57829 -10.0229
ltibia 26.3631
lfoot -10.7295 -4.69914
ltoes -11.8258
262
root -8.87326 17.9978 5.55516 -42.9054 85.7513 -57.9664
lowerback 4.89649 0.878691 -0.433064
upperback 5.71629 1.28867 4.52698
thorax 3.05088 0.624977 4.91547
lowerneck -11.5512 -0.808886 1.91822
upperneck 44.0698 3.30627 -4.91018
head 18.8083 1.76142 -1.85297
rclavicle 7.95139e-015 2.78299e-014
rhumerus -19.8786 45.6132 -99.3762
rradius 56.1943
rwrist -63.8874
rhand -39.7467 -18.1292
rfingers 7.12502
rthumb -12.7236 -47.7216
lclavicle 7.95139e-015 2.78299e-014
lhumerus -16.6254 -46.9695 105.998
lradius 53.5045
lwrist 63.8852
lhand -11.8008 66.2409
lfingers 7.12502
lthumb -165.751 84.2679
rfemur -28.024 -0.691979 14.5538
rtibia 25.3969
rfoot -6.76145 -5.80635
rtoes -3.0406
lfemur -27.881 3.71191 -10.2427
ltibia 26.4042
lfoot -10.7456 -4.68799
ltoes -13.7835
